<svg width="532" height="639" viewBox="0 0 532 639" fill="none" xmlns="http://www.w3.org/2000/svg">
<g opacity="0.4">
<path fill-rule="evenodd" clip-rule="evenodd" d="M143.374 2.56734C101.368 17.2103 57.876 35.5768 57.876 38.6744C57.876 41.2192 77.5815 70.1054 89.8133 85.4884C95.8073 93.0269 111.475 109.678 124.628 122.493C137.783 135.306 148.159 146.18 147.683 146.655C146.508 147.834 93.8556 138.274 90.6956 136.309C89.3117 135.448 83.792 129.047 78.4319 122.084C70.7143 112.063 67.7732 105.509 64.31 90.6101C61.9046 80.2595 59.2075 71.0602 58.3137 70.1647C57.4223 69.2716 53.2067 75.2727 48.9478 83.5056C44.6866 91.7363 39.8508 98.9915 38.1979 99.6265C36.5449 100.262 31.4721 98.4775 26.9236 95.6608C16.9945 89.5113 16.9557 89.5547 9.82865 114.635L4.66916 132.789L13.2508 150.258C25.795 175.8 51.1388 216.804 56.5855 220.373C72.5177 230.812 172.876 271.495 239.685 294.597L265.32 303.463L297.009 292.317L328.698 281.172L360.897 292.233L393.099 303.294L428.972 291.234C484.349 272.619 585.188 231.278 601.77 220.393C610.676 214.545 652.939 141.132 652.939 131.508C652.939 127.297 641.738 91.1994 640.431 91.1994C639.93 91.1994 635.862 93.3627 631.391 96.0058C626.92 98.6488 621.891 100.284 620.217 99.6403C618.544 98.9961 613.69 91.7363 609.429 83.5056C605.17 75.2727 600.954 69.2716 600.063 70.1647C599.169 71.0602 596.524 80.0128 594.183 90.0618C590.854 104.348 587.571 111.606 579.128 123.35L568.33 138.368L542.77 142.196C528.712 144.302 515.812 146.025 514.102 146.025C512.392 146.025 524.791 131.811 541.657 114.439C568.045 87.2589 600.5 45.5527 600.5 38.8275C600.5 35.3438 541.031 10.5079 512.477 2.06477C503.61 -0.557707 501.914 -0.192204 480.558 8.94536C468.155 14.252 443.698 25.763 426.211 34.5237L394.415 50.4527L362.373 48.1318C341.158 46.5944 319.038 46.5578 296.918 48.029L263.51 50.2494L229.519 33.1987C193.245 15.0013 158.079 -0.292717 153.193 0.00425346C151.554 0.102482 147.135 1.25838 143.374 2.56734ZM648.379 200.126C635.023 217.197 615.899 233.588 600.398 241.245L585.681 248.516L570.314 281.222C555.677 312.372 548.468 327.618 504.634 420.152C488.074 455.112 485.747 461.561 486.086 471.551C486.574 485.881 488.574 495.537 491.057 495.537C492.108 495.537 501.107 479.859 511.054 460.7C540.549 403.887 580.581 338.663 609.251 300.71C629.697 273.645 645.939 240.772 654.904 208.313C657.414 199.224 658.769 191.37 657.914 190.858C657.059 190.347 652.768 194.518 648.379 200.126ZM3.46307 208.274C13.0867 243.121 27.3522 271.091 54.4059 308.15C85.4085 350.622 126.883 419.243 152.598 470.618C159.458 484.323 166.043 495.537 167.228 495.537C169.784 495.537 172.06 484.645 172.484 470.374C172.796 459.861 166.745 446.333 92.9049 292.468C82.4172 270.613 73.8355 251.863 73.8355 250.801C73.8355 249.738 66.9091 245.576 58.446 241.551C46.5926 235.913 38.2777 229.346 22.2611 212.971C10.825 201.28 0.886749 191.713 0.177689 191.713C-0.53137 191.713 0.946027 199.167 3.46307 208.274ZM486.504 288.233C475.539 293.505 462.421 298.01 456.294 298.606L445.465 299.659V310.492C445.465 326.8 439.327 358.782 432.932 375.805C423.046 402.123 429.04 400.063 453.442 368.753C470.056 347.435 489.196 318.149 500.981 296.013C505.559 287.417 509.303 279.963 509.303 279.452C509.303 277.624 505.63 279.038 486.504 288.233ZM153.622 289.919C163.597 309.51 184.579 342.252 200.452 362.994C219.108 387.378 227.777 396.362 229.674 393.287C230.378 392.143 228.308 383.585 225.07 374.27C218.199 354.494 213.103 327.958 212.991 311.362L212.911 299.659L202.082 298.595C196.127 298.008 182.739 293.766 172.333 289.167C161.925 284.566 152.416 280.804 151.196 280.804C149.978 280.804 151.068 284.904 153.622 289.919ZM243.976 536.941C243.191 540.868 242.551 555.177 242.551 568.74V593.4L255.66 605.148C271.216 619.088 299.82 633.671 319.04 637.459C331.45 639.906 334.532 639.668 349.819 635.079C371.775 628.49 393.84 615.385 407.358 600.904L418.106 589.393L418.085 571.591C418.06 549.375 415.801 529.802 413.261 529.802C412.201 529.802 408.11 536.228 404.171 544.08C388.674 574.981 340.467 611.876 323.817 605.58C298.849 596.137 268.419 568.9 256.041 544.914C251.757 536.612 247.61 529.816 246.826 529.812C246.041 529.807 244.76 533.014 243.976 536.941Z" fill="#52BEDC"/>
</g>
</svg>
