<svg width="27" height="17" viewBox="0 0 27 17" fill="none" xmlns="http://www.w3.org/2000/svg">
<g clip-path="url(#clip0_30_333)">
<path d="M19.5819 14.0008C19.5034 13.7467 19.4351 13.5005 19.3493 13.2603C19.3049 13.1355 19.2276 13.0222 19.168 12.9024C19.1131 12.7917 19.053 12.6822 19.0107 12.5667C18.9159 12.3091 18.7896 12.078 18.5703 11.897C18.3146 11.6862 18.0967 11.4425 17.9182 11.1592C17.7793 10.9387 17.6805 10.7084 17.6173 10.4612C17.5819 10.3224 17.547 10.1809 17.5385 10.0391C17.5326 9.93895 17.5719 9.83632 17.5901 9.7347C17.5952 9.70537 17.6037 9.67428 17.5988 9.64597C17.5611 9.422 17.6561 9.23266 17.8109 9.09818C17.9534 8.97431 18.1542 8.92805 18.3493 8.97608C18.5781 9.03245 18.8017 9.10879 19.0276 9.17528C19.06 9.18488 19.0941 9.1955 19.127 9.19398C19.4702 9.17806 19.7334 9.33276 19.9614 9.56659C20.024 9.6308 20.097 9.68591 20.1581 9.75138C20.2975 9.90078 20.4566 10.0393 20.5635 10.2094C20.6941 10.4172 20.775 10.6548 20.887 10.8748C20.9257 10.9509 20.9904 11.0146 21.0459 11.0821C21.2484 11.3283 21.451 11.5745 21.6564 11.8184C21.6836 11.8508 21.7283 11.869 21.7648 11.894C21.7809 11.8606 21.7984 11.8278 21.8125 11.7934C21.8405 11.7254 21.8225 11.6625 21.8069 11.5919C21.7812 11.4754 21.8017 11.349 21.7758 11.2327C21.7234 10.9981 21.6559 10.7668 21.5889 10.5358C21.5488 10.3975 21.5013 10.2613 21.451 10.1265C21.4307 10.0719 21.3981 10.0203 21.3645 9.97181C21.2885 9.86236 21.2081 9.75593 21.1301 9.64799C21.0251 9.50264 20.9155 9.36032 20.8171 9.21067C20.7527 9.11284 20.6959 9.00793 20.6513 8.89999C20.5385 8.62799 20.4292 8.35422 20.329 8.07742C20.2274 7.79632 20.2343 7.50056 20.2217 7.20656C20.2112 6.9601 20.1768 6.71337 20.1367 6.46943C20.1211 6.37439 20.0633 6.2854 20.021 6.19541C19.9013 5.94212 19.7059 5.74545 19.507 5.55434C19.3989 5.45045 19.2741 5.36273 19.1508 5.27552C18.968 5.14609 18.7811 5.02526 18.6574 4.82909C18.6076 4.75022 18.5146 4.69891 18.4528 4.62585C18.3334 4.4848 18.2335 4.33337 18.1822 4.15086C18.1434 4.01334 18.07 3.88543 18.0273 3.74868C17.9542 3.51282 17.8851 3.2752 17.8294 3.0348C17.7678 2.76786 17.7159 2.49839 17.6735 2.2279C17.6371 1.99584 17.6232 1.76024 17.5934 1.52692C17.5785 1.41039 17.5452 1.29587 17.53 1.17934C17.5218 1.11564 17.5215 1.04612 17.5387 0.984944C17.5878 0.80875 17.642 0.633568 17.7056 0.462178C17.738 0.375219 17.7629 0.273345 17.8782 0.243516C17.9067 0.236185 17.9375 0.219754 17.9572 0.198773C18.0576 0.0913376 18.1696 0.0592335 18.3041 0.134817C18.3175 0.142401 18.338 0.142148 18.3542 0.139115C18.5013 0.112572 18.5868 0.202817 18.6764 0.294832C18.7316 0.351457 18.8037 0.39165 18.8625 0.445241C19.0112 0.580735 19.1526 0.724319 19.3049 0.855769C19.4754 1.0034 19.6595 1.13636 19.8284 1.28551C19.9994 1.43642 20.1555 1.60377 20.3249 1.75645C20.4261 1.84771 20.5393 1.92607 20.6492 2.00772C20.8163 2.1321 20.9835 2.25647 21.154 2.37679C21.2798 2.46552 21.4066 2.5545 21.5401 2.63085C21.7979 2.77797 22.0682 2.90462 22.3193 3.0616C22.5324 3.19482 22.7368 3.34346 22.8857 3.55656C23.077 3.83058 23.1938 4.13544 23.3052 4.44435C23.3527 4.5763 23.4315 4.70548 23.4426 4.84021C23.4665 5.1289 23.6652 5.33366 23.7666 5.58366C23.7823 5.62209 23.8208 5.65091 23.8423 5.68781C23.9342 5.84404 24.0239 6.00178 24.115 6.15876C24.1248 6.17544 24.1404 6.18884 24.1522 6.20426C24.1787 6.23889 24.2085 6.27175 24.2298 6.30917C24.3746 6.56145 24.5145 6.81676 24.6619 7.06753C24.7815 7.27128 24.9065 7.4725 25.0347 7.67119C25.1492 7.84865 25.2737 8.01978 25.389 8.19648C25.4365 8.26903 25.4745 8.34816 25.5122 8.42627C25.5687 8.54255 25.6465 8.6563 25.6696 8.77941C25.7027 8.95535 25.7515 9.13888 25.6557 9.3181C25.5995 9.42352 25.5499 9.53474 25.515 9.64875C25.4555 9.84264 25.153 10.0689 24.9669 10.0411C24.8103 10.0178 24.7291 9.89775 24.6421 9.78601C24.5474 9.66442 24.4721 9.52994 24.3065 9.47155C24.0942 9.39672 23.9437 9.24631 23.8074 9.06279C23.5712 8.74453 23.4873 8.37343 23.3668 8.01346C23.3373 7.92499 23.3232 7.83146 23.3052 7.73969C23.2472 7.44545 23.1168 7.18432 22.9448 6.93886C22.7871 6.71413 22.6467 6.47803 22.4906 6.25204C22.3273 6.01593 22.1535 5.78691 21.9861 5.55333C21.8513 5.36526 21.7229 5.17238 21.5848 4.98658C21.4906 4.85968 21.3832 4.74239 21.2846 4.61877C21.1147 4.40593 20.9504 4.18878 20.7766 3.97947C20.7059 3.89453 20.6194 3.82173 20.5342 3.75019C20.5106 3.73022 20.4661 3.73452 20.4312 3.72769C20.4264 3.76182 20.4074 3.80151 20.4189 3.82906C20.4651 3.93953 20.518 4.04722 20.573 4.1539C20.659 4.32048 20.7509 4.48404 20.8359 4.65113C20.9696 4.91428 21.1016 5.17819 21.23 5.44387C21.2734 5.53387 21.3024 5.63068 21.3401 5.72346C21.4998 6.11755 21.6695 6.50786 21.8179 6.906C21.9368 7.22552 22.0302 7.5544 22.1347 7.87898C22.2474 8.22909 22.3576 8.57996 22.4734 8.92906C22.5776 9.24302 22.6926 9.55345 22.7946 9.86792C22.8772 10.123 22.9948 10.3606 23.1206 10.5975C23.2852 10.9079 23.4351 11.2267 23.5761 11.5485C23.6909 11.8106 23.7918 12.0796 23.8814 12.3511C23.9245 12.4815 23.9271 12.6248 23.9484 12.7621C23.9689 12.894 23.9789 13.0288 24.0136 13.1572C24.076 13.3882 24.0996 13.6198 24.0996 13.8594C24.0996 14.071 24.1466 14.2821 24.1653 14.4942C24.1833 14.6969 24.1897 14.9004 24.2051 15.1034C24.2133 15.2121 24.2264 15.3208 24.2429 15.4288C24.2698 15.6065 24.228 15.7773 24.2041 15.951C24.1835 16.1012 24.1032 16.2223 24.0508 16.3562C23.9897 16.513 23.886 16.5731 23.7463 16.6146C23.5979 16.6586 23.3009 16.5319 23.2652 16.3486C23.2354 16.196 23.0957 16.1249 22.992 16.0344C22.7825 15.8522 22.5784 15.6697 22.4171 15.4406C22.3396 15.3304 22.2205 15.249 22.1219 15.1532C22.0865 15.1188 22.05 15.0832 22.0241 15.042C21.9309 14.8944 21.8418 14.7445 21.7519 14.5951C21.7311 14.5604 21.7088 14.526 21.6934 14.4891C21.6469 14.3792 21.5984 14.2695 21.5604 14.1565C21.5247 14.0498 21.488 13.9406 21.4754 13.8299C21.4505 13.6097 21.3319 13.4378 21.2081 13.2656C20.9511 12.9074 20.689 12.5538 20.3688 12.2456C20.2528 12.1342 20.1424 12.0171 20.0248 11.9072C19.9994 11.8834 19.955 11.8796 19.9193 11.8665C19.9216 11.9024 19.9136 11.9431 19.928 11.9734C20.0215 12.1701 20.1231 12.3629 20.2148 12.5606C20.2608 12.6595 20.2895 12.7659 20.3293 12.8678C20.375 12.984 20.4253 13.0985 20.4715 13.2146C20.5047 13.2977 20.5362 13.3814 20.565 13.4661C20.6371 13.6797 20.7175 13.8913 20.7753 14.1084C20.8428 14.363 20.8849 14.6239 20.9468 14.8799C21.0158 15.1653 21.0977 15.4477 21.1668 15.7334C21.1861 15.8132 21.1927 15.9015 21.1807 15.9821C21.1591 16.1237 21.1273 16.2652 21.0821 16.401C21.0595 16.4687 21.0102 16.5476 20.9501 16.5787C20.8469 16.6323 20.7273 16.6591 20.6117 16.6851C20.4359 16.7248 20.3195 16.629 20.2261 16.4983C20.0905 16.3085 19.9126 16.1596 19.718 16.0395C19.5768 15.9523 19.3994 15.9237 19.2484 15.8491C19.0461 15.749 18.8351 15.6522 18.662 15.5124C18.4836 15.3683 18.346 15.1747 18.1911 15.0023C18.0029 14.7927 17.8633 14.5559 17.7701 14.291C17.7485 14.2298 17.701 14.1767 17.6633 14.1216C17.588 14.0121 17.5141 13.9014 17.4343 13.7952C17.3624 13.6994 17.2882 13.6041 17.2065 13.5164C17.0663 13.3652 16.9195 13.2199 16.7737 13.0705C16.7297 13.1231 16.719 13.1797 16.7482 13.2565C16.7819 13.345 16.7893 13.4428 16.8124 13.5354C16.8371 13.634 16.8666 13.7315 16.8943 13.8294C16.9423 13.998 17.0001 14.1646 17.0366 14.3357C17.0707 14.4967 17.0864 14.6618 17.1031 14.8256C17.1215 15.0066 17.1529 15.1899 17.1398 15.3696C17.1292 15.516 17.1595 15.6767 17.0581 15.812C17.0419 15.8337 17.0712 15.8838 17.0617 15.9156C17.0209 16.0524 17.0042 16.2099 16.9215 16.3173C16.795 16.4814 16.6378 16.6358 16.4006 16.6492C16.3531 16.652 16.3048 16.6558 16.2589 16.6669C16.0458 16.719 15.8812 16.6242 15.7236 16.5026C15.6363 16.4354 15.5444 16.3732 15.4596 16.3029C15.3782 16.2357 15.3089 16.1537 15.2242 16.0916C15.1169 16.0124 14.9985 15.9477 14.8863 15.8749C14.7058 15.7581 14.5004 15.6783 14.3615 15.5008C14.2588 15.3696 14.1215 15.2627 14.0293 15.1257C13.9156 14.9568 13.8291 14.77 13.7377 14.5875C13.6445 14.4017 13.5713 14.205 13.4663 14.026C13.3964 13.907 13.2889 13.8086 13.1934 13.7052C13.0745 13.5768 12.9512 13.4527 12.8288 13.3278C12.7774 13.2755 12.7253 13.2234 12.6693 13.1759C12.5181 13.047 12.3687 12.9158 12.2113 12.7944C11.9725 12.6102 11.7204 12.4456 11.4311 12.3463C11.3892 12.3318 11.3394 12.3402 11.2744 12.3372C11.3194 12.5396 11.3499 12.728 11.4062 12.9087C11.4318 12.9916 11.513 13.0566 11.5594 13.1352C11.6169 13.2328 11.6639 13.3359 11.7163 13.4365C11.7271 13.4573 11.7363 13.4815 11.7533 13.4962C11.9574 13.6731 12.0059 13.9196 12.0621 14.1623C12.0852 14.2619 12.096 14.3648 12.1273 14.4616C12.1926 14.6636 12.1194 14.8564 12.106 15.0539C12.0983 15.1684 12.123 15.2864 12.1433 15.4012C12.1723 15.5637 12.2829 15.7116 12.2547 15.8828C12.2239 16.0681 12.2249 16.2632 12.0398 16.399C11.9112 16.4932 11.8205 16.6346 11.6657 16.7038C11.5089 16.7741 11.3209 16.7534 11.191 16.6399C11.1761 16.6267 11.1569 16.6184 11.1394 16.608C11.0182 16.5357 10.9717 16.4293 10.963 16.291C10.953 16.129 10.9397 15.9629 10.8942 15.8079C10.8436 15.6353 10.7497 15.4753 10.686 15.3056C10.6339 15.1669 10.5925 15.0233 10.5561 14.8794C10.4924 14.6277 10.4403 14.3729 10.3753 14.1213C10.3196 13.9054 10.2616 13.6893 10.1874 13.479C10.1517 13.3779 10.0914 13.277 10.0174 13.1987C9.79354 12.9615 9.67313 12.6718 9.5766 12.3736C9.48674 12.096 9.46671 11.8028 9.4395 11.5133C9.42743 11.3849 9.42691 11.2542 9.43718 11.1255C9.44437 11.0363 9.46337 10.9524 9.43718 10.8601C9.42229 10.8073 9.40946 10.7858 9.35682 10.7823C9.00765 10.7587 8.65848 10.734 8.30931 10.7097C8.1912 10.7014 8.07336 10.6915 7.95526 10.6862C7.92496 10.6849 7.89389 10.6983 7.86385 10.7049C7.86668 10.7239 7.86514 10.7322 7.86873 10.7368C8.00532 10.9097 8.14422 11.0808 8.27875 11.2555C8.32779 11.3192 8.36579 11.3912 8.40944 11.4592C8.53216 11.6508 8.66182 11.8384 8.77555 12.0351C8.84667 12.1579 8.89443 12.2942 8.95194 12.4246C9.00175 12.5376 9.03923 12.6577 9.10213 12.7631C9.21792 12.9567 9.23923 13.1746 9.28416 13.3855C9.335 13.6236 9.37248 13.8653 9.40021 14.1072C9.41305 14.2187 9.38378 14.3342 9.38224 14.4477C9.38121 14.5303 9.39328 14.6133 9.40227 14.6959C9.4264 14.9151 9.45439 15.1345 9.354 15.3446C9.25207 15.5582 9.12036 15.7528 8.983 15.9462C8.78377 16.2273 8.48235 16.3186 8.17529 16.4118C7.99402 16.467 7.8161 16.5344 7.64049 16.606C7.57759 16.6315 7.52983 16.6912 7.46898 16.7248C7.36577 16.7819 7.2623 16.8413 7.13393 16.8277C7.1044 16.8246 7.06974 16.8466 7.04073 16.8626C6.75934 17.018 6.4551 17.0264 6.1542 16.9619C5.92518 16.9129 5.70258 16.8307 5.51721 16.6707C5.43788 16.6022 5.32645 16.5706 5.23531 16.5135C5.09025 16.4225 4.94365 16.332 4.80911 16.2273C4.50821 15.9932 4.31308 15.6831 4.17675 15.3337C4.15262 15.272 4.11616 15.2151 4.0874 15.155C4.01911 15.0114 3.95364 14.8666 3.88303 14.724C3.86583 14.6893 3.83066 14.6638 3.80884 14.6307C3.70023 14.4654 3.59959 14.2947 3.48482 14.1337C3.34336 13.9353 3.19291 13.7432 3.0422 13.5515C3.00548 13.505 2.95208 13.4712 2.90561 13.4325C2.69226 13.2538 2.47916 13.0748 2.26478 12.8973C2.16619 12.8157 2.06503 12.7368 1.96336 12.6592C1.87478 12.5917 1.76669 12.5417 1.69737 12.4592C1.56694 12.304 1.45526 12.1329 1.34101 11.9653C1.23189 11.8053 1.12432 11.6435 1.02598 11.4769C0.983622 11.4051 0.954866 11.3214 0.938948 11.2395C0.906085 11.0692 0.876046 10.897 0.862952 10.7244C0.847547 10.5191 0.846777 10.3126 0.848061 10.1065C0.848831 9.96195 0.876046 9.81711 0.86937 9.67327C0.859614 9.45739 0.832143 9.24227 0.809292 9.02689C0.792861 8.87218 0.771808 8.71798 0.752552 8.56353C0.746133 8.51095 0.740998 8.45812 0.731756 8.40604C0.680407 8.11332 0.633422 7.81983 0.573601 7.52887C0.534319 7.33801 0.479119 7.14969 0.423406 6.96237C0.385664 6.83522 0.329437 6.71337 0.291439 6.58647C0.21878 6.34329 0.15177 6.09809 0.0857869 5.85314C0.0750036 5.81269 0.0847599 5.76744 0.0778278 5.72548C0.0603692 5.6183 0.034438 5.51213 0.0205738 5.40444C0.00747989 5.3013 0.00131803 5.1969 -0.000479183 5.093C-0.00278988 4.96661 0.00362873 4.83996 0.00491245 4.71357C0.00850687 4.33843 0.167688 4.00677 0.300939 3.66728C0.388488 3.44432 0.466282 3.21757 0.556399 2.99537C0.611599 2.85937 0.680407 2.72868 0.744593 2.59622C0.824954 2.43039 0.913017 2.2681 0.986189 2.09923C1.03086 1.99635 1.05371 1.88436 1.08606 1.77642C1.08786 1.7701 1.08709 1.75974 1.0912 1.75746C1.17772 1.70842 1.22702 1.62905 1.27426 1.54639C1.29762 1.50569 1.33279 1.47156 1.36078 1.43288C1.37259 1.41671 1.37413 1.39117 1.38851 1.37955C1.61573 1.19779 1.66707 0.871189 1.96361 0.736958C2.11484 0.668453 2.22241 0.512483 2.36414 0.416929C2.68121 0.204081 3.04271 0.0941183 3.41191 0.00766475C3.45068 -0.00143562 3.49432 -0.00219398 3.53386 0.00412572C3.81243 0.0486164 4.09023 0.099174 4.36931 0.141137C4.53671 0.166416 4.70564 0.188661 4.87458 0.195992C5.20373 0.209895 5.53339 0.208631 5.86279 0.22026C6.13699 0.229866 6.35291 0.379263 6.51492 0.570371C6.65998 0.741509 6.76858 0.951576 6.85382 1.16038C6.94009 1.37196 6.98605 1.60099 7.03303 1.82572C7.05434 1.92759 7.03149 2.03755 7.03662 2.14372C7.04022 2.21981 7.04715 2.29818 7.06923 2.37073C7.13085 2.57473 7.20145 2.7762 7.26795 2.97868C7.2795 3.01382 7.28284 3.05275 7.30056 3.08435C7.31956 3.11873 7.3555 3.1751 7.37578 3.17181C7.43304 3.16246 7.50467 3.1569 7.51083 3.06564C7.51366 3.02419 7.55294 2.98526 7.5745 2.94456C7.71725 2.67534 7.85692 2.4046 8.00275 2.13715C8.10186 1.9554 8.20558 1.77566 8.31572 1.59998C8.37221 1.50998 8.44692 1.43111 8.51367 1.34744C8.62125 1.21296 8.7296 1.07898 8.8364 0.943992C8.93011 0.825434 9.02639 0.708646 9.11446 0.586297C9.25515 0.390639 9.42332 0.231635 9.65798 0.15049C9.80048 0.101196 9.93398 0.14417 10.0644 0.191694C10.1237 0.213434 10.1486 0.264497 10.1212 0.331992C10.0529 0.49959 9.97173 0.664155 9.92551 0.837568C9.88186 1.00062 9.85722 1.17378 9.85773 1.34239C9.85876 1.70008 9.85157 2.06334 9.72962 2.3955C9.61896 2.69682 9.46979 2.99461 9.15579 3.17636C9.04308 3.24158 8.95656 3.38769 8.90829 3.51535C8.80354 3.79291 8.72934 4.0816 8.6459 4.36674C8.61304 4.47873 8.59327 4.59425 8.55963 4.70598C8.48389 4.95776 8.40841 5.20954 8.32317 5.45828C8.25154 5.66708 8.1681 5.8721 8.08465 6.0766C8.07156 6.10871 8.03151 6.15117 8.00198 6.15269C7.86925 6.15977 7.77759 6.24117 7.70082 6.32509C7.61558 6.41837 7.51212 6.43834 7.40223 6.45452C7.12726 6.49446 6.85844 6.47601 6.60658 6.34961C6.55317 6.32282 6.50029 6.28591 6.46177 6.24142C6.33289 6.09152 6.21171 5.93529 6.08513 5.78337C6.00554 5.68781 5.91748 5.59908 5.84122 5.50151C5.73904 5.37056 5.64019 5.2376 5.59321 5.07329C5.56317 4.96863 5.50515 4.87181 5.47588 4.76716C5.43916 4.63571 5.4027 4.50072 5.39577 4.36573C5.38473 4.15314 5.38576 3.93827 5.40527 3.72643C5.4235 3.52824 5.48666 3.33385 5.50258 3.13566C5.51182 3.02039 5.47485 2.8988 5.44378 2.78404C5.40887 2.65562 5.35572 2.53201 5.3131 2.40561C5.26586 2.26532 5.24044 2.1144 5.1724 1.98523C5.05096 1.75519 4.94698 1.49937 4.64711 1.42732C4.41989 1.37272 4.19626 1.3841 4.00884 1.52414C3.90306 1.60301 3.86301 1.74407 3.82809 1.87324C3.77623 2.06485 3.66686 2.23195 3.5924 2.41092C3.52026 2.58408 3.37982 2.6766 3.27147 2.80502C3.20831 2.87984 3.11229 2.92686 3.03706 2.99309C2.97775 3.04517 2.93154 3.1119 2.87198 3.16347C2.76543 3.25599 2.65041 3.33966 2.54437 3.43294C2.50843 3.46454 2.48301 3.51131 2.4617 3.55555C2.37261 3.74109 2.26144 3.92133 2.20752 4.11648C2.16079 4.2856 2.16208 4.47367 2.17543 4.65088C2.19725 4.9383 2.30046 5.20676 2.40419 5.47623C2.46196 5.62613 2.55413 5.75 2.62679 5.88777C2.7436 6.10921 2.87583 6.3256 2.96184 6.55867C3.03604 6.75963 3.05195 6.98108 3.09842 7.19266C3.12205 7.29934 3.15748 7.40323 3.18623 7.5089C3.244 7.72099 3.23424 7.93662 3.21858 8.15224C3.206 8.32515 3.18983 8.49806 3.17956 8.67122C3.16441 8.92628 3.15157 9.1816 3.14156 9.43691C3.14002 9.47306 3.15773 9.51073 3.16929 9.54662C3.1947 9.62549 3.21268 9.70841 3.25042 9.78146C3.33951 9.95285 3.43399 10.122 3.53438 10.2873C3.71179 10.5798 4.01654 10.7276 4.28766 10.9122C4.50436 11.0596 4.68973 11.2385 4.84018 11.4478C4.91515 11.5525 4.9475 11.6857 5.01117 11.7997C5.15109 12.0505 5.27793 12.3119 5.44866 12.5414C5.66561 12.8336 5.82787 13.1504 5.99039 13.4712C6.09232 13.6724 6.2307 13.8562 6.35805 14.0442C6.38039 14.0773 6.42968 14.0935 6.46742 14.116C6.594 14.1914 6.71364 14.2859 6.84997 14.3357C6.98296 14.3842 7.13342 14.387 7.27617 14.409C7.28926 14.411 7.30492 14.4032 7.31673 14.4075C7.54369 14.4922 7.63176 14.2975 7.73471 14.1817C7.91623 13.9775 7.89466 13.7303 7.82817 13.4777C7.78221 13.3031 7.70827 13.1443 7.61558 12.9939C7.57348 12.9259 7.50108 12.8743 7.4374 12.8212C7.15421 12.5846 6.86178 12.3581 6.58938 12.1104C6.50131 12.0303 6.45253 11.9003 6.40657 11.7851C6.34573 11.6316 6.30875 11.4688 6.2551 11.3123C6.18064 11.096 6.01863 10.9478 5.83737 10.8184C5.66998 10.6988 5.49796 10.5858 5.33082 10.466C5.10719 10.3057 4.88511 10.143 4.66431 9.97864C4.57316 9.91064 4.48433 9.83885 4.3996 9.76326C4.21449 9.59844 4.19626 9.37852 4.21192 9.1543C4.21423 9.11941 4.27329 9.08023 4.31437 9.05798C4.39652 9.01349 4.48382 8.97734 4.57085 8.94221C4.60449 8.92856 4.64351 8.9192 4.67971 8.92072C5.0733 8.93639 5.46689 8.95181 5.86022 8.97431C5.95779 8.97987 6.05304 9.01577 6.1506 9.02891C6.28513 9.04686 6.42044 9.06203 6.556 9.06835C6.95729 9.08706 7.36141 9.07745 7.75936 9.12346C8.11084 9.16416 8.46002 9.24783 8.78043 9.41467C8.88441 9.46877 9.00072 9.46952 9.09674 9.4445C9.09212 9.36234 9.08904 9.29459 9.08365 9.22685C9.08211 9.20839 9.07928 9.18691 9.06876 9.1725C8.88236 8.91541 8.73191 8.64619 8.66207 8.3297C8.62767 8.17348 8.59506 8.01902 8.61175 7.86558C8.64821 7.53114 8.67414 7.19392 8.78634 6.87061C8.81561 6.78618 8.80431 6.68532 8.79866 6.59254C8.7794 6.26948 8.75912 5.94768 8.79353 5.62361C8.81047 5.46561 8.85386 5.31697 8.8898 5.16479C8.91779 5.04674 8.89879 4.92136 8.96991 4.80912C9.12832 4.55886 9.22973 4.26462 9.50445 4.10334C9.77403 3.94509 10.2557 3.86091 10.542 4.13595C10.6952 4.28307 10.8444 4.42691 10.9584 4.60613C11.0521 4.753 11.1492 4.89836 11.2542 5.03764C11.39 5.21788 11.572 5.35211 11.7463 5.49443C11.9181 5.63448 12.0701 5.79929 12.2478 5.93125C12.4516 6.08267 12.5769 6.29375 12.7233 6.48738C12.81 6.6024 12.8711 6.74396 12.913 6.88249C12.9921 7.14387 13.0408 7.41385 13.1176 7.67599C13.1625 7.82943 13.2403 7.97327 13.2984 8.12343C13.3546 8.26903 13.4041 8.41717 13.4565 8.56404C13.4609 8.57642 13.4604 8.59184 13.4678 8.60195C13.656 8.85929 13.6966 9.16744 13.7074 9.46245C13.7166 9.71523 13.6278 9.97384 13.3923 10.1394C13.2355 10.2496 13.0799 10.3631 12.915 10.4607C12.7012 10.5868 12.4532 10.5568 12.2182 10.5828C12.0668 10.5995 11.9148 10.6091 11.763 10.624C11.7371 10.6265 11.7122 10.6394 11.6531 10.6581C11.7058 10.7034 11.7368 10.7486 11.7787 10.763C12.0118 10.8437 12.2508 10.9084 12.4809 10.9961C12.6116 11.0459 12.7328 11.124 12.8516 11.1994C13.0077 11.2984 13.1628 11.4006 13.3073 11.5151C13.3998 11.5884 13.4824 11.6791 13.5505 11.7752C13.6814 11.9605 13.799 12.1551 13.9217 12.346C13.9325 12.3629 13.9454 12.3804 13.9492 12.3993C13.9854 12.5776 14.0907 12.7143 14.2157 12.8405C14.3698 12.9959 14.5256 13.1496 14.6745 13.3099C14.7885 13.4327 14.8922 13.5647 15.0011 13.6918C15.0393 13.7366 15.0758 13.8107 15.1441 13.773C15.1813 13.7525 15.2047 13.682 15.2088 13.6319C15.2311 13.3615 15.1562 13.1044 15.0835 12.8475C15.0062 12.5748 14.873 12.3225 14.7002 12.1056C14.5148 11.873 14.4262 11.6048 14.3233 11.3417C14.2465 11.145 14.1941 10.9322 14.1757 10.7226C14.1608 10.5545 14.2134 10.3806 14.2362 10.2094C14.237 10.2029 14.2414 10.1968 14.2422 10.1902C14.264 10.007 14.3099 9.82242 14.3017 9.64041C14.2871 9.31456 14.2288 8.99327 14.1017 8.68714C14.0519 8.56732 14.0252 8.4384 13.9818 8.3158C13.8794 8.02762 13.7731 7.74071 13.6681 7.45354C13.5926 7.24726 13.5189 7.04023 13.4401 6.83497C13.3946 6.71666 13.3343 6.60392 13.2922 6.4846C13.227 6.29931 13.1715 6.11073 13.1117 5.92341C13.0883 5.85036 13.0642 5.77755 13.0419 5.70424C12.99 5.53513 12.9577 5.35717 12.8824 5.19892C12.8052 5.03663 12.8136 4.86322 12.7805 4.69764C12.7559 4.57352 12.8231 4.4307 12.855 4.29773C12.8596 4.27827 12.8976 4.26816 12.9168 4.25021C12.9456 4.22341 12.9862 4.19737 12.9957 4.16401C13.0285 4.04848 13.1148 3.99616 13.2188 3.96355C13.5269 3.86723 13.8306 3.91375 14.1346 3.98958C14.3559 4.04494 14.5336 4.1683 14.6915 4.32276C14.7431 4.37332 14.777 4.44106 14.825 4.49592C14.8927 4.57352 14.9574 4.6572 15.0386 4.71938C15.1854 4.83213 15.3097 4.96004 15.4114 5.11398C15.5015 5.25024 15.6091 5.37537 15.702 5.51036C15.7528 5.58417 15.7849 5.67088 15.8347 5.7457C15.8548 5.77553 15.9 5.78893 15.9338 5.80991C15.9454 5.7773 15.9695 5.74317 15.9659 5.71208C15.9569 5.62993 15.9423 5.54701 15.9187 5.46763C15.8517 5.24366 15.8391 5.0159 15.8306 4.78359C15.8206 4.51108 15.8699 4.25754 15.9826 4.0141C16.0083 3.959 16.0612 3.90035 16.1161 3.87709C16.2584 3.81718 16.4039 3.81162 16.5467 3.8963C16.6964 3.98529 16.853 4.0634 17.006 4.14732C17.0201 4.15516 17.0307 4.16982 17.0414 4.18271C17.195 4.367 17.312 4.56948 17.3518 4.80786C17.3916 5.04775 17.3826 5.28133 17.29 5.5139C17.2432 5.63119 17.2296 5.76567 17.2235 5.89333C17.2158 6.05208 17.215 6.21462 17.2414 6.37059C17.2638 6.50331 17.3264 6.62995 17.376 6.75711C17.4774 7.01697 17.5685 7.27735 17.5493 7.5635C17.5295 7.85345 17.4011 8.09789 17.2278 8.3206C17.0928 8.49401 17.0278 8.68234 17.0101 8.89898C17.0011 9.01046 16.9577 9.12801 16.8997 9.22533C16.7998 9.39293 16.5883 9.43691 16.4175 9.3358C16.3629 9.30344 16.3138 9.24732 16.2843 9.19095C16.1118 8.86106 15.9459 8.52915 15.8404 8.16969C15.7862 7.9854 15.6966 7.81098 15.6224 7.63251C15.5241 7.3959 15.4373 7.15373 15.3236 6.92445C15.1177 6.50887 14.9574 6.0675 14.6519 5.70475C14.5985 5.6413 14.4316 5.6547 14.3959 5.72826C14.3882 5.74393 14.3916 5.76871 14.3977 5.7864C14.4606 5.96891 14.5266 6.15042 14.5888 6.33318C14.6758 6.58875 14.7585 6.84584 14.8468 7.10115C14.8817 7.20201 14.9328 7.29757 14.9654 7.39894C15.0055 7.52381 15.0296 7.65375 15.0689 7.77888C15.1002 7.87898 15.1485 7.97378 15.1813 8.07363C15.2173 8.18308 15.2576 8.28597 15.3174 8.38885C15.4008 8.53269 15.4288 8.70711 15.4856 8.86662C15.5937 9.17073 15.7066 9.47306 15.815 9.77717C15.8602 9.90432 15.8974 10.034 15.9403 10.1619C15.9898 10.3098 16.0881 10.421 16.2122 10.5145C16.3647 10.6296 16.5228 10.7395 16.6612 10.8697C16.7991 10.9997 16.9131 11.1541 17.0425 11.2934C17.1082 11.3642 17.1803 11.4304 17.2574 11.489C17.425 11.6167 17.5354 11.7873 17.6402 11.963C17.7287 12.1114 17.815 12.2608 17.9026 12.4097C17.911 12.4241 17.9239 12.4367 17.93 12.4519C18.1041 12.8695 18.4476 13.1481 18.7698 13.4444C18.9478 13.6079 19.119 13.7796 19.3057 13.9328C19.3768 13.9911 19.4731 14.0516 19.584 14.0023L19.5819 14.0008ZM11.2652 9.51376C11.2652 9.51781 11.2652 9.5216 11.2652 9.52564C11.4218 9.52564 11.5795 9.53727 11.7343 9.52185C11.8565 9.50972 12.0213 9.50036 12.0832 9.42402C12.1458 9.34667 12.1307 9.18261 12.1037 9.06683C12.0696 8.92022 11.9951 8.78093 11.9271 8.64366C11.8275 8.44244 11.7047 8.25766 11.535 8.10219C11.3666 7.94774 11.2038 7.78545 11.0539 7.61381C10.8657 7.39868 10.735 7.14943 10.6575 6.87415C10.5977 6.66206 10.5371 6.45022 10.4724 6.23965C10.4613 6.20426 10.4339 6.15926 10.4023 6.14662C10.1984 6.06396 9.92217 6.27251 9.96351 6.45123C9.97866 6.5162 9.99329 6.58218 9.99791 6.64866C10.0167 6.9151 10.0582 7.178 10.1209 7.43787C10.1635 7.61532 10.2084 7.79227 10.2516 7.96948C10.2998 8.16766 10.3507 8.36535 10.3941 8.56479C10.4267 8.71495 10.449 8.86713 10.477 9.0183C10.5011 9.14823 10.5255 9.27816 10.552 9.40784C10.5661 9.47736 10.6002 9.51806 10.6839 9.51578C10.8775 9.51048 11.0716 9.51401 11.2655 9.51401L11.2652 9.51376Z" fill="white"/>
<path d="M24.9157 15.7609C24.9224 15.6626 24.9211 15.5751 24.9357 15.4905C24.9547 15.3802 24.9398 15.2827 24.8846 15.1833C24.8076 15.0443 24.7411 14.8992 24.6743 14.7548C24.6338 14.6674 24.6012 14.5766 24.5652 14.4871C24.5639 14.4841 24.5621 14.4798 24.5634 14.4775C24.6512 14.3064 24.6068 14.0996 24.7414 13.934C24.8666 13.7798 25.0235 13.6752 25.196 13.6082C25.3278 13.5571 25.4895 13.5549 25.6338 13.569C25.7547 13.5809 25.8726 13.6433 25.9868 13.6941C26.0248 13.7111 26.0451 13.7634 26.0777 13.7953C26.2793 13.9919 26.4918 14.1785 26.6813 14.386C26.8194 14.5372 27.002 14.68 26.9997 14.9068C26.9984 15.0375 26.9642 15.1818 26.9001 15.2953C26.7619 15.5395 26.5966 15.7693 26.4371 16.0016C26.4084 16.0433 26.3591 16.0757 26.3129 16.1007C26.2338 16.1434 26.1457 16.1702 26.069 16.216C25.9958 16.2597 25.9249 16.3125 25.8664 16.3737C25.7891 16.4543 25.7083 16.5077 25.5927 16.5307C25.4962 16.5499 25.405 16.6004 25.3118 16.5393C25.2523 16.5003 25.2007 16.4488 25.148 16.4002C25.1234 16.3777 25.1072 16.3461 25.0823 16.3239C24.9688 16.2228 24.9165 16.1004 24.9275 15.9482C24.9324 15.8823 24.9195 15.8148 24.9157 15.7607V15.7609Z" fill="white"/>
</g>
<defs>
<clipPath id="clip0_30_333">
<rect width="27" height="17" fill="white"/>
</clipPath>
</defs>
</svg>
