<svg width="28" height="28" viewBox="0 0 28 28" fill="none" xmlns="http://www.w3.org/2000/svg">
<g clip-path="url(#clip0_41_384)">
<path d="M9.79988 28.0001C10.5731 28.0001 11.1999 27.3734 11.1999 26.6002C11.1999 25.827 10.5731 25.2002 9.79988 25.2002C9.02669 25.2002 8.3999 25.827 8.3999 26.6002C8.3999 27.3734 9.02669 28.0001 9.79988 28.0001Z" fill="black"/>
<path d="M21.0001 28.0001C21.7733 28.0001 22.4001 27.3734 22.4001 26.6002C22.4001 25.827 21.7733 25.2002 21.0001 25.2002C20.2269 25.2002 19.6001 25.827 19.6001 26.6002C19.6001 27.3734 20.2269 28.0001 21.0001 28.0001Z" fill="black"/>
<path d="M27.44 5.32002C26.88 4.62 26.04 4.2 25.2 4.2H6.85997L5.17997 0H0V2.80002H3.22002L7.70004 14C5.74002 14.42 4.20006 16.1 4.20006 18.2C4.20006 20.5801 6.02004 22.4 8.40006 22.4H25.2V19.6H8.39999C7.55999 19.6 7.00002 19.04 7.00002 18.2C7.00002 17.36 7.55999 16.8 8.39999 16.8H22.82C24.08 16.8 25.2 15.96 25.4799 14.84L27.86 7.69997C28.14 6.85997 28 6.01997 27.44 5.32002ZM22.82 14H10.78L7.97999 7.00002H25.2L22.82 14Z" fill="black"/>
</g>
<defs>
<clipPath id="clip0_41_384">
<rect width="28" height="28" fill="white"/>
</clipPath>
</defs>
</svg>
