<svg width="237" height="42" viewBox="0 0 237 42" fill="none" xmlns="http://www.w3.org/2000/svg">
<path fill-rule="evenodd" clip-rule="evenodd" d="M9.37037 0.167792C6.62504 1.1248 3.78256 2.32517 3.78256 2.52762C3.78256 2.69394 5.07044 4.58183 5.86987 5.58721C6.26161 6.0799 7.2856 7.16814 8.14522 8.00571C9.005 8.84313 9.68314 9.5538 9.65199 9.58485C9.57526 9.66189 6.13406 9.03708 5.92754 8.90868C5.83709 8.85239 5.47634 8.43406 5.12602 7.97899C4.62163 7.32401 4.42941 6.89567 4.20306 5.92194C4.04586 5.24547 3.86958 4.64424 3.81117 4.58571C3.75291 4.52734 3.47739 4.91955 3.19905 5.45762C2.92055 5.99555 2.6045 6.46972 2.49647 6.51123C2.38844 6.55273 2.0569 6.43613 1.75963 6.25204C1.1107 5.85013 1.10816 5.85297 0.642365 7.49212L0.305159 8.67861L0.866026 9.8203C1.68587 11.4896 3.34224 14.1695 3.69822 14.4027C4.73949 15.085 11.2985 17.7439 15.6649 19.2538L17.3404 19.8332L19.4114 19.1048L21.4825 18.3764L23.5869 19.0993L25.6915 19.8222L28.036 19.034C31.6553 17.8174 38.2458 15.1155 39.3295 14.4041C39.9115 14.0219 42.6737 9.22385 42.6737 8.59485C42.6737 8.31969 41.9416 5.96046 41.8562 5.96046C41.8235 5.96046 41.5576 6.10185 41.2654 6.27459C40.9732 6.44733 40.6445 6.55423 40.5351 6.51212C40.4258 6.47002 40.1085 5.99555 39.83 5.45762C39.5517 4.91955 39.2762 4.52734 39.2179 4.58571C39.1595 4.64424 38.9866 5.22934 38.8336 5.88611C38.6161 6.81983 38.4015 7.29415 37.8497 8.0617L37.144 9.0432L35.4735 9.29342C34.5547 9.43108 33.7116 9.54365 33.5998 9.54365C33.4881 9.54365 34.2984 8.61471 35.4008 7.47928C37.1254 5.70292 39.2465 2.97716 39.2465 2.53762C39.2465 2.30994 35.3598 0.686757 33.4936 0.134946C32.9141 -0.0364497 32.8032 -0.0125618 31.4075 0.584636C30.5969 0.931459 28.9985 1.68378 27.8556 2.25634L25.7775 3.29741L23.6833 3.14572C22.2968 3.04524 20.8512 3.04285 19.4055 3.139L17.2221 3.28412L15.0005 2.16975C12.6298 0.980429 10.3315 -0.0191309 10.0121 0.000277991C9.90501 0.00669787 9.61623 0.0822434 9.37037 0.167792ZM42.3757 13.0795C41.5028 14.1952 40.2529 15.2664 39.2398 15.7669L38.278 16.2421L37.2736 18.3796C36.317 20.4155 35.8458 21.4119 32.981 27.4596C31.8988 29.7445 31.7466 30.1659 31.7688 30.8188C31.8007 31.7554 31.9314 32.3865 32.0937 32.3865C32.1624 32.3865 32.7505 31.3618 33.4006 30.1096C35.3283 26.3966 37.9446 22.1338 39.8184 19.6533C41.1547 17.8844 42.2162 15.736 42.8021 13.6146C42.9662 13.0205 43.0547 12.5072 42.9988 12.4738C42.943 12.4404 42.6625 12.713 42.3757 13.0795ZM0.226334 13.6121C0.855297 15.8895 1.78764 17.7175 3.55577 20.1396C5.58199 22.9154 8.29259 27.4002 9.97326 30.7579C10.4216 31.6536 10.852 32.3865 10.9294 32.3865C11.0965 32.3865 11.2452 31.6746 11.2729 30.7419C11.2933 30.0549 10.8979 29.1707 6.07192 19.1146C5.38649 17.6863 4.82562 16.4608 4.82562 16.3914C4.82562 16.322 4.37293 16.05 3.81982 15.7869C3.04512 15.4184 2.50169 14.9892 1.45491 13.919C0.707481 13.1549 0.0579547 12.5296 0.0116131 12.5296C-0.0347284 12.5296 0.0618289 13.0168 0.226334 13.6121ZM31.7961 18.8378C31.0795 19.1824 30.2221 19.4768 29.8217 19.5158L29.114 19.5846V20.2926C29.114 21.3585 28.7128 23.4487 28.2949 24.5612C27.6488 26.2813 28.0405 26.1466 29.6353 24.1003C30.7212 22.7071 31.9721 20.7931 32.7423 19.3464C33.0415 18.7845 33.2862 18.2974 33.2862 18.2639C33.2862 18.1445 33.0461 18.2369 31.7961 18.8378ZM10.0402 18.948C10.6921 20.2284 12.0634 22.3683 13.1008 23.724C14.3201 25.3176 14.8867 25.9048 15.0106 25.7038C15.0567 25.629 14.9214 25.0697 14.7098 24.4609C14.2607 23.1684 13.9276 21.4342 13.9203 20.3495L13.9151 19.5846L13.2073 19.5151C12.8181 19.4767 11.9431 19.1994 11.2631 18.8989C10.5828 18.5982 9.96134 18.3523 9.88162 18.3523C9.80205 18.3523 9.87327 18.6203 10.0402 18.948ZM15.9454 35.0925C15.8941 35.3492 15.8522 36.2844 15.8522 37.1708V38.7825L16.709 39.5503C17.7257 40.4613 19.5952 41.4145 20.8513 41.662C21.6623 41.8219 21.8638 41.8064 22.8629 41.5064C24.2979 41.0758 25.74 40.2193 26.6234 39.2729L27.3259 38.5206L27.3245 37.3571C27.3229 35.9052 27.1752 34.626 27.0092 34.626C26.9399 34.626 26.6726 35.0459 26.4151 35.5591C25.4023 37.5787 22.2517 39.99 21.1635 39.5785C19.5317 38.9613 17.5429 37.1812 16.7339 35.6136C16.4539 35.071 16.1829 34.6269 16.1316 34.6266C16.0804 34.6263 15.9966 34.8359 15.9454 35.0925Z" fill="black"/>
<path d="M236.36 28.1896H228.289C225.83 28.1896 224.6 26.9423 224.6 24.4476C224.6 22.0421 225.83 20.8393 228.289 20.8393H233.42V20.8126C233.42 19.8504 232.93 19.3693 231.95 19.3693H225.135V16.4292H231.95C234.89 16.4292 236.36 17.8992 236.36 20.8393V28.1896ZM227.54 24.5011C227.54 25 227.79 25.2495 228.289 25.2495H233.42V23.7794H228.289C227.79 23.7794 227.54 24.02 227.54 24.5011Z" fill="black"/>
<path d="M211.236 23.7796V20.8395C211.236 17.8994 212.706 16.4293 215.646 16.4293H220.056V12.1528H222.996V28.1897H215.646C212.706 28.1897 211.236 26.7197 211.236 23.7796ZM220.056 25.2496V19.3694H215.646C214.666 19.3694 214.176 19.8594 214.176 20.8395V23.7796C214.176 24.7596 214.666 25.2496 215.646 25.2496H220.056Z" fill="black"/>
<path d="M200.812 28.1896H197.872V16.4292H205.222C208.162 16.4292 209.632 17.8992 209.632 20.8393V28.1896H206.692V20.8393C206.692 19.8593 206.202 19.3693 205.222 19.3693H200.812V28.1896Z" fill="black"/>
<path d="M196.268 24.0469C196.268 26.987 194.798 28.4571 191.858 28.4571H188.918C185.978 28.4571 184.508 26.987 184.508 24.0469V20.5723C184.508 17.6322 185.978 16.1621 188.918 16.1621H191.858C194.798 16.1621 196.268 17.6322 196.268 20.5723V24.0469ZM193.328 24.0469V20.5723C193.328 19.5922 192.838 19.1022 191.858 19.1022H188.918C187.938 19.1022 187.448 19.5922 187.448 20.5723V24.0469C187.448 25.0269 187.938 25.517 188.918 25.517H191.858C192.838 25.517 193.328 25.0269 193.328 24.0469Z" fill="black"/>
<path d="M182.904 28.1896H175.554C172.614 28.1896 171.144 26.7195 171.144 23.7794V20.8393C171.144 17.8992 172.614 16.4292 175.554 16.4292H182.904V19.3693H175.554C174.574 19.3693 174.084 19.8593 174.084 20.8393V23.7794C174.084 24.7595 174.574 25.2495 175.554 25.2495H182.904V28.1896Z" fill="black"/>
<path d="M169.54 28.1896H161.468C159.009 28.1896 157.78 26.9423 157.78 24.4476C157.78 22.0421 159.009 20.8393 161.468 20.8393H166.6V20.8126C166.6 19.8504 166.11 19.3693 165.13 19.3693H158.314V16.4292H165.13C168.07 16.4292 169.54 17.8992 169.54 20.8393V28.1896ZM160.72 24.5011C160.72 25 160.969 25.2495 161.468 25.2495H166.6V23.7794H161.468C160.969 23.7794 160.72 24.02 160.72 24.5011Z" fill="black"/>
<path d="M147.356 28.1896H144.416V16.4292H151.766C154.706 16.4292 156.176 17.8992 156.176 20.8393V28.1896H153.236V20.8393C153.236 19.8593 152.746 19.3693 151.766 19.3693H147.356V28.1896Z" fill="black"/>
<path d="M142.808 28.1897H139.6V24.9823H129.978V28.1897H126.771V16.9639C126.771 13.7565 128.374 12.1528 131.582 12.1528H137.997C141.204 12.1528 142.808 13.7565 142.808 16.9639V28.1897ZM139.6 21.775V16.9639C139.6 15.8948 139.066 15.3602 137.997 15.3602H131.582C130.513 15.3602 129.978 15.8948 129.978 16.9639V21.775H139.6Z" fill="black"/>
<path d="M116.869 28.1896H113.929V16.4292H121.279C124.219 16.4292 125.689 17.8992 125.689 20.8393H122.749C122.749 19.8593 122.259 19.3693 121.279 19.3693H116.869V28.1896Z" fill="black"/>
<path d="M112.331 23.5123H103.244V23.7796C103.244 24.7597 103.734 25.2497 104.714 25.2497H111.797V28.1898H104.714C101.774 28.1898 100.304 26.7197 100.304 23.7796V23.5123V20.5723C100.304 17.6322 101.8 16.1621 104.794 16.1621H107.841C110.835 16.1621 112.331 17.6322 112.331 20.5723V23.5123ZM103.244 20.5723H109.391C109.391 19.5922 108.901 19.1022 107.921 19.1022H104.714C103.734 19.1022 103.244 19.5922 103.244 20.5723Z" fill="black"/>
<path d="M98.7001 23.7796C98.7001 26.7197 97.23 28.1897 94.2899 28.1897H86.9397V12.1528H89.8798V16.4293H94.2899C97.23 16.4293 98.7001 17.8994 98.7001 20.8395V23.7796ZM89.8798 25.2496H94.2899C95.27 25.2496 95.76 24.7596 95.76 23.7796V20.8395C95.76 19.8594 95.27 19.3694 94.2899 19.3694H89.8798V25.2496Z" fill="black"/>
<path d="M73.0651 34.0698V31.1297H74.4015C74.8826 31.1297 75.4974 30.5773 76.2458 29.4725L77.1011 27.7085L71.4614 16.4292H74.749L78.8117 24.5813L82.8476 16.4292H86.1352L80.255 28.1896L79.0522 30.6218C77.9118 32.9205 76.3705 34.0698 74.4282 34.0698H73.0651Z" fill="black"/>
<path d="M69.8533 28.1897H58.6275C55.4201 28.1897 53.8164 26.586 53.8164 23.3786V16.9639C53.8164 13.7565 55.4201 12.1528 58.6275 12.1528H69.8533V15.3602H58.6275C57.5583 15.3602 57.0238 15.8948 57.0238 16.9639V23.3786C57.0238 24.4478 57.5583 24.9823 58.6275 24.9823H69.8533V28.1897Z" fill="black"/>
</svg>
