<svg width="30" height="31" viewBox="0 0 30 31" fill="none" xmlns="http://www.w3.org/2000/svg">
<g clip-path="url(#clip0_30_338)">
<path d="M21.1325 9.01624C21.1384 9.01624 21.1464 9.01624 21.1544 9.01624C21.3625 9.01624 21.5558 9.08125 21.7141 9.19326L21.7112 9.19126C21.8267 9.29228 21.9044 9.4343 21.9233 9.59432V9.59732C21.9432 9.71934 21.9542 9.85935 21.9542 10.0024C21.9542 10.0674 21.9522 10.1314 21.9472 10.1954V10.1864C21.7231 12.5557 20.751 18.3015 20.257 20.9539C20.0478 22.077 19.6365 22.4531 19.238 22.4891C18.3725 22.5701 17.7151 21.915 16.8765 21.3629C15.5637 20.4978 14.8217 19.9597 13.5478 19.1166C12.0747 18.1435 13.0299 17.6064 13.8685 16.7323C14.0886 16.5023 17.9044 13.0168 17.9791 12.7007C17.9831 12.6817 17.9851 12.6607 17.9851 12.6387C17.9851 12.5607 17.9562 12.4897 17.9094 12.4357C17.8576 12.4017 17.7928 12.3827 17.7251 12.3827C17.6803 12.3827 17.6374 12.3917 17.5976 12.4067L17.5996 12.4057C17.4681 12.4357 15.3712 13.8272 11.3088 16.5803C10.8655 16.9313 10.3058 17.1534 9.69622 17.1794H9.69024C8.82669 17.0743 8.04283 16.8813 7.29881 16.6063L7.37251 16.6303C6.43825 16.3242 5.69622 16.1632 5.75996 15.6451C5.79382 15.3758 6.16368 15.1001 6.86952 14.818C11.2175 12.9158 14.1169 11.6619 15.5677 11.0565C17.1683 10.2034 19.0239 9.5013 20.9751 9.04624L21.1315 9.01524L21.1325 9.01624ZM14.9651 0C6.69622 0.0200027 0 6.75593 0 15.0621C0 23.3802 6.71514 30.1241 15 30.1241C23.2849 30.1241 30 23.3812 30 15.0621C30 6.75593 23.3038 0.0200027 15.0369 0H15.0349C15.0116 0 14.9884 0 14.9651 0Z" fill="white"/>
</g>
<defs>
<clipPath id="clip0_30_338">
<rect width="30" height="30.1241" fill="white"/>
</clipPath>
</defs>
</svg>
